<svg width="300" height="100" viewBox="0 0 300 100" fill="none" xmlns="http://www.w3.org/2000/svg">
<mask id="path-1-inside-1_0_41" fill="white">
<path fill-rule="evenodd" clip-rule="evenodd" d="M288 0C294.627 0 300 5.37258 300 12V88C300 94.6274 294.627 100 288 100H12C5.37259 100 0 94.6274 0 88V78.2929C11.6519 74.1746 20 63.0622 20 50C20 36.9378 11.6519 25.8254 0 21.7071V12C0 5.37258 5.37259 0 12 0H288Z"/>
</mask>
<path fill-rule="evenodd" clip-rule="evenodd" d="M288 0C294.627 0 300 5.37258 300 12V88C300 94.6274 294.627 100 288 100H12C5.37259 100 0 94.6274 0 88V78.2929C11.6519 74.1746 20 63.0622 20 50C20 36.9378 11.6519 25.8254 0 21.7071V12C0 5.37258 5.37259 0 12 0H288Z" fill="white"/>
<path d="M0 78.2929H-2V76.8786L-0.666504 76.4073L0 78.2929ZM0 21.7071L-0.666504 23.5927L-2 23.1214V21.7071H0ZM298 12C298 6.47715 293.523 2 288 2V-2C295.732 -2 302 4.26801 302 12H298ZM298 88V12H302V88H298ZM288 98C293.523 98 298 93.5229 298 88H302C302 95.732 295.732 102 288 102V98ZM12 98H288V102H12V98ZM2 88C2 93.5229 6.47717 98 12 98V102C4.26801 102 -2 95.732 -2 88H2ZM2 78.2929V88H-2V78.2929H2ZM-0.666504 76.4073C10.2113 72.5625 18 62.1883 18 50H22C22 63.9361 13.0925 75.7867 0.666504 80.1786L-0.666504 76.4073ZM18 50C18 37.8117 10.2113 27.4375 -0.666504 23.5927L0.666504 19.8214C13.0925 24.2133 22 36.0639 22 50H18ZM2 12V21.7071H-2V12H2ZM12 2C6.47717 2 2 6.47715 2 12H-2C-2 4.26801 4.26801 -2 12 -2V2ZM288 2H12V-2H288V2Z" fill="#4D46FA" mask="url(#path-1-inside-1_0_41)"/>
</svg>
