<svg width="300" height="100" viewBox="0 0 300 100" fill="none" xmlns="http://www.w3.org/2000/svg">
<mask id="path-1-inside-1_0_38" fill="white">
<path fill-rule="evenodd" clip-rule="evenodd" d="M12 0C5.37258 0 0 5.37258 0 12V88C0 94.6274 5.37259 100 12 100H288C294.627 100 300 94.6274 300 88V78.2929C288.348 74.1746 280 63.0622 280 50C280 36.9378 288.348 25.8254 300 21.7071V12C300 5.37258 294.627 0 288 0H12Z"/>
</mask>
<path fill-rule="evenodd" clip-rule="evenodd" d="M12 0C5.37258 0 0 5.37258 0 12V88C0 94.6274 5.37259 100 12 100H288C294.627 100 300 94.6274 300 88V78.2929C288.348 74.1746 280 63.0622 280 50C280 36.9378 288.348 25.8254 300 21.7071V12C300 5.37258 294.627 0 288 0H12Z" fill="white"/>
<path d="M300 78.2929H301V77.5858L300.333 77.3501L300 78.2929ZM300 21.7071L300.333 22.6499L301 22.4142V21.7071H300ZM1 12C1 5.92487 5.92487 1 12 1V-1C4.8203 -1 -1 4.8203 -1 12H1ZM1 88V12H-1V88H1ZM12 99C5.92487 99 1 94.0751 1 88H-1C-1 95.1797 4.82031 101 12 101V99ZM288 99H12V101H288V99ZM299 88C299 94.0751 294.075 99 288 99V101C295.18 101 301 95.1797 301 88H299ZM299 78.2929V88H301V78.2929H299ZM300.333 77.3501C289.068 73.3685 281 62.6252 281 50H279C279 63.4992 287.628 74.9806 299.667 79.2358L300.333 77.3501ZM281 50C281 37.3748 289.068 26.6315 300.333 22.6499L299.667 20.7642C287.628 25.0194 279 36.5008 279 50H281ZM299 12V21.7071H301V12H299ZM288 1C294.075 1 299 5.92487 299 12H301C301 4.8203 295.18 -1 288 -1V1ZM12 1H288V-1H12V1Z" fill="black" fill-opacity="0.1" mask="url(#path-1-inside-1_0_38)"/>
</svg>
