<svg width="14" height="14" viewBox="0 0 14 14" fill="none" xmlns="http://www.w3.org/2000/svg">
<path d="M11.8316 2.29805H10.2397C10.226 2.08389 10.0484 1.91428 9.83083 1.91428H9.80968V1.03468C9.80968 0.464203 9.34077 0 8.76442 0H5.24786C4.6714 0 4.2025 0.464203 4.2025 1.03468V1.91428H4.18135C3.96378 1.91428 3.78615 2.08389 3.77258 2.29805H2.18056C0.99324 2.29805 0.0273438 3.26395 0.0273438 4.45126V12.2411C0.0273438 13.211 0.81636 14 1.78621 14H12.226C13.1958 14 13.9848 13.211 13.9848 12.2411V4.45126C13.9848 3.26395 13.0188 2.29805 11.8316 2.29805ZM7.26158 3.11836C7.62752 3.19142 7.94592 3.39885 8.1604 3.70572C8.38097 4.02135 8.46545 4.40405 8.39816 4.78313C8.37167 4.93277 8.32265 5.07451 8.25279 5.20631L7.1003 5.33865C6.98248 5.35211 6.87631 5.41599 6.80913 5.51372L5.12086 7.96835C5.05923 8.05797 5.03574 8.16841 5.0555 8.27544C5.07526 8.38246 5.13678 8.4771 5.22639 8.53873L6.91017 9.69678C6.98109 9.74559 7.06206 9.76898 7.14217 9.76898C7.27269 9.76898 7.40097 9.70692 7.48044 9.59125L9.1687 7.13661C9.23589 7.03888 9.25757 6.9169 9.22798 6.80208L8.93607 5.66624C9.06862 5.43788 9.15919 5.18954 9.20587 4.92647C9.3114 4.33153 9.17896 3.73114 8.83278 3.23596C8.80458 3.19548 8.77478 3.1566 8.74423 3.11836H10.2253V13.1797H3.7869V3.11836H7.26158ZM8.38716 6.82547L7.03706 8.78845L6.02919 8.09525L7.37929 6.13226L8.18518 6.03987L8.38716 6.82547ZM5.02281 1.03468C5.02281 0.912491 5.11958 0.820312 5.24786 0.820312H8.76442C8.8927 0.820312 8.98936 0.912491 8.98936 1.03468V1.91428H8.96822C8.75064 1.91428 8.57301 2.08389 8.55945 2.29805H5.45284C5.43916 2.08389 5.26164 1.91428 5.04396 1.91428H5.02281V1.03468ZM0.847656 12.2411V4.45126C0.847656 3.71629 1.44559 3.11836 2.18056 3.11836H2.96648V13.1797H1.78621C1.26871 13.1797 0.847656 12.7586 0.847656 12.2411ZM13.1645 12.2411C13.1645 12.7586 12.7436 13.1797 12.226 13.1797H11.0457V3.11836H11.8316C12.5666 3.11836 13.1645 3.71629 13.1645 4.45126V12.2411Z" fill="black"/>
</svg>
