<svg width="18" height="18" viewBox="0 0 18 18" fill="none" xmlns="http://www.w3.org/2000/svg">
<g clip-path="url(#clip0_0_14)">
<path d="M8.99999 0C7.21995 0 5.47989 0.527841 3.99985 1.51677C2.5198 2.50571 1.36625 3.91131 0.685059 5.55585C0.00386902 7.20038 -0.174361 9.00998 0.172906 10.7558C0.520174 12.5016 1.37734 14.1053 2.63602 15.364C3.89469 16.6226 5.49834 17.4798 7.24417 17.8271C8.99 18.1743 10.7996 17.9961 12.4441 17.3149C14.0887 16.6337 15.4943 15.4802 16.4832 14.0001C17.4722 12.5201 18 10.78 18 9C18 6.61305 17.0518 4.32387 15.364 2.63604C13.6761 0.948211 11.3869 0 8.99999 0V0ZM11.5603 5.85711C11.5603 6.02645 11.4892 6.09395 11.3234 6.09395C11.0049 6.09395 10.6863 6.09395 10.3689 6.10697C10.0516 6.12 9.87867 6.26447 9.87867 6.59605C9.87157 6.95132 9.87867 7.29947 9.87867 7.66184H11.2417C11.4359 7.66184 11.5022 7.72816 11.5022 7.92355C11.5022 8.39724 11.5022 8.87329 11.5022 9.35171C11.5022 9.54474 11.4406 9.60513 11.2453 9.60632H9.86683V13.4597C9.86683 13.6658 9.80288 13.7309 9.5992 13.7309H8.11656C7.93775 13.7309 7.86788 13.6611 7.86788 13.4822V9.61224H6.69077C6.50604 9.61224 6.43972 9.54474 6.43972 9.35882C6.43972 8.87961 6.43972 8.40079 6.43972 7.92237C6.43972 7.73763 6.50959 7.66776 6.69196 7.66776H7.86788V6.63158C7.85392 6.16614 7.9656 5.70553 8.19117 5.29816C8.42566 4.88689 8.80141 4.57468 9.24867 4.41947C9.53893 4.31386 9.84572 4.26092 10.1546 4.26316H11.3187C11.4856 4.26316 11.5555 4.33658 11.5555 4.5C11.5614 4.95592 11.5614 5.40711 11.5603 5.85711Z" fill="#4D46FA"/>
</g>
<defs>
<clipPath id="clip0_0_14">
<rect width="18" height="18" fill="white"/>
</clipPath>
</defs>
</svg>
