<svg width="18" height="18" viewBox="0 0 18 18" fill="none" xmlns="http://www.w3.org/2000/svg">
<g clip-path="url(#clip0_0_122)">
<path d="M9.00001 0C7.21998 0 5.47992 0.527841 3.99987 1.51677C2.51983 2.50571 1.36628 3.91131 0.685089 5.55585C0.00389953 7.20038 -0.174331 9.00998 0.172937 10.7558C0.520204 12.5016 1.37737 14.1053 2.63604 15.364C3.89472 16.6226 5.49836 17.4798 7.24419 17.8271C8.99002 18.1743 10.7996 17.9961 12.4442 17.3149C14.0887 16.6337 15.4943 15.4802 16.4832 14.0001C17.4722 12.5201 18 10.78 18 9C17.9997 6.61314 17.0514 4.32413 15.3636 2.63637C13.6759 0.948606 11.3869 0.000298301 9.00001 0V0ZM4.37907 4.78125H13.6209C13.8235 4.78122 14.0214 4.84197 14.1891 4.95563L9.72282 9.56812C9.6291 9.66531 9.51672 9.74257 9.39241 9.79524C9.26809 9.84792 9.13442 9.87494 8.99941 9.87468C8.8644 9.87441 8.73083 9.84688 8.60672 9.79371C8.48262 9.74055 8.37053 9.66286 8.27719 9.56531L3.80813 4.96125C3.97534 4.84383 4.17475 4.78096 4.37907 4.78125ZM3.37501 12.2147V5.78531C3.37445 5.59607 3.42813 5.41062 3.52969 5.25094L7.67532 9.52594L3.59719 12.8419C3.45269 12.6649 3.37416 12.4432 3.37501 12.2147ZM13.6209 13.2188H4.37907C4.21641 13.2186 4.05621 13.179 3.91219 13.1034L7.95657 9.81844L7.98751 9.84656C8.11904 9.98205 8.27643 10.0898 8.45035 10.1633C8.62426 10.2369 8.81118 10.2748 9.00001 10.2748C9.18884 10.2748 9.37575 10.2369 9.54967 10.1633C9.72359 10.0898 9.88098 9.98205 10.0125 9.84656L10.0434 9.81844L14.0963 13.1006C13.9496 13.1775 13.7866 13.218 13.6209 13.2188ZM14.625 12.2147C14.6244 12.4398 14.5492 12.6584 14.4113 12.8363L10.3219 9.52594L14.4675 5.24531C14.57 5.40681 14.6246 5.59404 14.625 5.78531V12.2147Z" fill="#4D46FA"/>
</g>
<defs>
<clipPath id="clip0_0_122">
<rect width="18" height="18" fill="white"/>
</clipPath>
</defs>
</svg>
