<svg width="18" height="18" viewBox="0 0 18 18" fill="none" xmlns="http://www.w3.org/2000/svg">
<path d="M15.363 2.63508C11.8478 -0.879104 6.14926 -0.87826 2.63508 2.63701C-0.879104 6.15228 -0.87826 11.8508 2.63701 15.3649C6.15228 18.8791 11.8508 18.8783 15.3649 15.363C17.0527 13.6748 18.0005 11.3852 18 8.99808C17.9995 6.61132 17.051 4.32251 15.363 2.63508ZM13.6302 12.5369C13.6298 12.5373 13.6294 12.5377 13.629 12.5381V12.5351L13.173 12.9881C12.5832 13.5853 11.7243 13.831 10.908 13.6361C10.0855 13.4159 9.30362 13.0655 8.59199 12.5981C7.93084 12.1756 7.31814 11.6816 6.76499 11.1251C6.25603 10.6199 5.79879 10.0651 5.39998 9.4691C4.96376 8.82778 4.61849 8.12916 4.37398 7.39309C4.09368 6.52839 4.32595 5.57955 4.97399 4.9421L5.50798 4.40811C5.65644 4.25898 5.89768 4.25845 6.04678 4.40692C6.04717 4.4073 6.04759 4.40769 6.04798 4.40811L7.73396 6.0941C7.8831 6.24257 7.88362 6.48381 7.73516 6.63291C7.73477 6.63329 7.73439 6.63368 7.73396 6.6341L6.74396 7.6241C6.4599 7.90507 6.42418 8.35155 6.65998 8.67411C7.01804 9.16553 7.41429 9.62794 7.84499 10.0571C8.32519 10.5394 8.84722 10.9781 9.40497 11.3681C9.72725 11.5929 10.1642 11.555 10.443 11.2781L11.4 10.3061C11.5484 10.157 11.7897 10.1565 11.9388 10.3049C11.9391 10.3053 11.9395 10.3057 11.9399 10.3061L13.629 11.9981C13.7781 12.1466 13.7787 12.3878 13.6302 12.5369Z" fill="#4D46FA"/>
</svg>
