<svg width="14" height="14" viewBox="0 0 14 14" fill="none" xmlns="http://www.w3.org/2000/svg">
<path d="M9.83383 0.00195312C8.49089 0.00195312 7.39832 1.09453 7.39832 2.43747V3.68289C7.39832 4.18651 7.55084 4.66983 7.83945 5.08063C8.06503 5.40202 8.36037 5.66093 8.70366 5.84048V12.87C8.70366 13.4931 9.21069 14 9.83383 14C10.457 14 10.964 13.4931 10.964 12.87V5.84059C11.3073 5.66093 11.6025 5.40202 11.8282 5.08073C12.1168 4.66983 12.2692 4.18651 12.2692 3.683V2.43747C12.2693 1.09453 11.1768 0.00195312 9.83383 0.00195312ZM11.449 3.68289C11.449 4.34897 11.0307 4.95576 10.4079 5.19267C10.2488 5.25323 10.1437 5.40587 10.1437 5.57613V12.87C10.1437 13.0408 10.0047 13.1797 9.83383 13.1797C9.66304 13.1797 9.52408 13.0408 9.52408 12.87V5.57613C9.52408 5.40587 9.41887 5.25323 9.25972 5.19267C8.63712 4.95576 8.21873 4.34908 8.21873 3.68289V2.43747C8.21873 1.54688 8.94324 0.822372 9.83383 0.822372C10.7244 0.822372 11.449 1.54688 11.449 2.43747V3.68289Z" fill="black"/>
<path d="M6.21077 0C5.98433 0 5.80061 0.183609 5.80061 0.410156V3.23148H5.27072V0.410156C5.27072 0.183609 5.08711 0 4.86057 0C4.63412 0 4.45041 0.183609 4.45041 0.410156V3.23148H3.92052V0.410156C3.92052 0.183609 3.73691 0 3.51036 0C3.28381 0 3.1002 0.183609 3.1002 0.410156V3.23148H2.57031V0.410156C2.57031 0.183609 2.3867 0 2.16016 0C1.93361 0 1.75 0.183609 1.75 0.410156V5.00519C1.75 5.61903 2.24934 6.11838 2.86319 6.11838H3.05534V12.8699C3.05534 13.4931 3.56227 14 4.18552 14C4.80865 14 5.31558 13.4931 5.31558 12.8699V6.11838H5.50774C6.12158 6.11838 6.62093 5.61903 6.62093 5.00519V0.410156C6.62093 0.183609 6.43732 0 6.21077 0ZM5.50774 5.29807H4.90543C4.67899 5.29807 4.49527 5.48167 4.49527 5.70822V12.8699C4.49527 13.0407 4.35631 13.1797 4.18552 13.1797C4.01462 13.1797 3.87566 13.0407 3.87566 12.8699V5.70822C3.87566 5.48167 3.69205 5.29807 3.4655 5.29807H2.86319C2.70169 5.29807 2.57031 5.16669 2.57031 5.00519V4.05179H5.80072V5.00519C5.80061 5.16669 5.66924 5.29807 5.50774 5.29807Z" fill="black"/>
</svg>
