<svg width="145" height="23" viewBox="0 0 145 23" fill="none" xmlns="http://www.w3.org/2000/svg">
<path d="M10.232 9.12C11.672 8.376 12.584 7.008 12.584 5.376C12.584 2.928 10.856 1.32 7.952 1.32H0.68V18H7.736C11.192 18 13.16 16.128 13.16 13.296C13.16 11.352 12.08 9.84 10.232 9.12ZM9.536 5.976C9.536 7.32 8.48 8.16 7.04 8.16H3.704V3.792H7.088C8.72 3.792 9.536 4.68 9.536 5.976ZM7.304 15.528H3.704V10.632H7.28C8.984 10.632 10.112 11.52 10.112 13.08C10.112 14.64 9.08 15.528 7.304 15.528ZM25.2314 5.352V7.152C24.2954 5.928 22.8794 5.256 21.0554 5.256C17.4314 5.256 14.7914 7.896 14.7914 11.688C14.7914 15.456 17.4314 18.288 21.0554 18.288C22.8794 18.288 24.2954 17.544 25.2314 16.296V18H28.0634V5.352H25.2314ZM21.4634 15.6C19.3754 15.6 17.8394 13.944 17.8394 11.688C17.8394 9.432 19.3754 7.776 21.4634 7.776C23.6474 7.776 25.1354 9.36 25.1354 11.688C25.1354 13.992 23.6474 15.6 21.4634 15.6ZM39.5968 5.352L36.0208 15.552L32.7568 5.352H29.6128L34.0768 18H35.0368L33.3088 22.296H36.3088L37.9408 18L42.7648 5.352H39.5968ZM49.7039 18.288C53.0639 18.288 55.1759 16.176 55.7519 14.256L53.0159 13.152C52.6079 14.592 51.4079 15.576 49.7759 15.576C47.7359 15.576 46.1519 14.04 46.1519 11.688C46.1519 9.336 47.7359 7.8 49.7519 7.8C51.3839 7.8 52.5359 8.784 52.9439 10.248L55.6799 9.168C55.1039 7.2 52.9919 5.088 49.7039 5.088C45.8879 5.088 43.1039 7.968 43.1039 11.712C43.1039 15.456 45.9359 18.288 49.7039 18.288ZM66.0526 5.352V13.008C66.0526 14.4 64.9486 15.552 63.2446 15.576C61.5406 15.576 60.4606 14.448 60.4606 12.816V5.352H57.4126V13.2C57.4126 16.128 59.1406 18.288 62.3566 18.288C63.9886 18.288 65.3566 17.592 66.2446 16.608V18H69.1006V5.352H66.0526ZM78.7878 5.064C77.0598 5.064 75.6678 5.76 74.8038 6.744V5.352H71.9238V18H74.9718V10.392C74.9958 8.976 76.2438 7.8 77.8998 7.776C79.6278 7.776 80.7558 8.856 80.7558 10.68V18H83.8278V10.104C83.8278 7.104 81.9078 5.064 78.7878 5.064ZM96.3174 5.352V7.008C95.3814 5.808 93.9654 5.064 92.1414 5.064C88.5174 5.064 85.8774 7.896 85.8774 11.4C85.8774 14.904 88.5174 17.664 92.1414 17.664C93.9654 17.664 95.3814 16.92 96.3174 15.72V16.44C96.3174 18.624 94.8294 20.04 92.3814 20.04C90.6054 20.04 89.2614 19.296 88.7094 17.832L86.0934 18.84C86.9334 21.096 88.9254 22.584 92.3574 22.584C96.6534 22.584 99.1494 19.992 99.1494 16.176V5.352H96.3174ZM92.5014 15.312C90.4614 15.312 88.9254 13.68 88.9254 11.544C88.9254 9.408 90.4614 7.776 92.5494 7.776C94.6614 7.776 96.1254 9.36 96.1254 11.544C96.1254 13.728 94.6374 15.312 92.5014 15.312ZM109.027 5.064C107.347 5.064 105.979 5.688 104.995 6.744V0.456H101.947V18H104.779V16.392C105.763 17.592 107.179 18.288 108.955 18.288C112.579 18.288 115.219 15.456 115.219 11.688C115.219 7.896 112.651 5.064 109.027 5.064ZM108.547 15.6C106.363 15.6 104.875 13.992 104.875 11.688C104.875 9.36 106.363 7.776 108.547 7.776C110.635 7.776 112.171 9.432 112.171 11.688C112.171 13.944 110.635 15.6 108.547 15.6ZM127.185 5.352V7.152C126.249 5.928 124.833 5.256 123.009 5.256C119.385 5.256 116.745 7.896 116.745 11.688C116.745 15.456 119.385 18.288 123.009 18.288C124.833 18.288 126.249 17.544 127.185 16.296V18H130.017V5.352H127.185ZM123.417 15.6C121.329 15.6 119.793 13.944 119.793 11.688C119.793 9.432 121.329 7.776 123.417 7.776C125.601 7.776 127.089 9.36 127.089 11.688C127.089 13.992 125.601 15.6 123.417 15.6ZM139.702 5.064C137.974 5.064 136.582 5.76 135.718 6.744V5.352H132.838V18H135.886V10.392C135.91 8.976 137.158 7.8 138.814 7.776C140.542 7.776 141.67 8.856 141.67 10.68V18H144.742V10.104C144.742 7.104 142.822 5.064 139.702 5.064Z" fill="white"/>
</svg>
